<svg width="66" height="66" viewBox="0 0 66 66" fill="none" xmlns="http://www.w3.org/2000/svg">
<g clip-path="url(#clip0_16_28)">
<path d="M11.3923 52.6429V5.91987C11.3923 3.20975 13.5919 1.0101 16.3039 1.0101H54.6061V52.6428L11.3923 52.6429Z" fill="#E7632A"/>
<path d="M16.8051 44.2976V1.01022H16.3039C13.5919 1.01022 11.3923 3.20975 11.3923 5.91999V52.6429H54.6063V44.2976H16.8051Z" fill="#E7632A"/>
<path d="M54.6063 57.5527H16.3033C13.5912 57.5527 11.3926 55.3541 11.3926 52.642C11.3926 49.9299 13.5912 47.7313 16.3033 47.7313H54.6063V57.5527Z" fill="#E0E0E3"/>
<path d="M14.671 56.318C14.671 53.6059 16.8697 51.4073 19.5817 51.4073H54.6063V47.7316H16.3033C13.5912 47.7316 11.3926 49.9302 11.3926 52.6422C11.3926 54.8191 12.8094 56.6638 14.7708 57.3076C14.7043 56.9819 14.6708 56.6504 14.671 56.318Z" fill="#D2D1D3"/>
<path d="M47.4508 53.3436H38.4122V64.9896L42.9314 62.3473L47.4508 64.9896V53.3436Z" fill="#E7632A"/>
<path d="M54.6068 17.6516C54.7394 17.6516 54.8708 17.6255 54.9934 17.5748C55.116 17.524 55.2273 17.4496 55.3211 17.3558C55.415 17.2619 55.4894 17.1506 55.5401 17.028C55.5909 16.9054 55.617 16.774 55.617 16.6414V1.01024C55.617 0.877566 55.5909 0.746191 55.5401 0.623616C55.4894 0.501041 55.415 0.389666 55.3211 0.295854C55.2273 0.202041 55.116 0.127628 54.9934 0.0768652C54.8708 0.0261021 54.7394 -1.69238e-05 54.6068 8.22705e-09H16.3026C13.0385 8.22705e-09 10.3829 2.65624 10.3829 5.92117V52.6424C10.3829 55.9072 13.0385 58.5635 16.3026 58.5635H23.7067C23.8394 58.5636 23.9708 58.5374 24.0933 58.4867C24.2159 58.4359 24.3273 58.3615 24.4211 58.2677C24.5149 58.1739 24.5893 58.0625 24.6401 57.9399C24.6908 57.8174 24.717 57.686 24.7169 57.5533C24.717 57.4206 24.6908 57.2893 24.6401 57.1667C24.5893 57.0441 24.5149 56.9327 24.4211 56.8389C24.3273 56.7451 24.2159 56.6707 24.0933 56.6199C23.9708 56.5692 23.8394 56.5431 23.7067 56.5431H16.3026C14.1525 56.5431 12.4032 54.7933 12.4032 52.6424C12.4032 51.5995 12.8089 50.6201 13.5462 49.8838C14.2817 49.1474 15.2608 48.7417 16.3026 48.7417H53.5965V56.5431H48.4608V54.3537H49.2073C49.34 54.3538 49.4713 54.3276 49.5939 54.2769C49.7165 54.2261 49.8279 54.1517 49.9217 54.0579C50.0155 53.9641 50.0899 53.8527 50.1407 53.7301C50.1914 53.6075 50.2175 53.4762 50.2175 53.3435C50.2175 53.2108 50.1914 53.0795 50.1407 52.9569C50.0899 52.8343 50.0155 52.7229 49.9217 52.6291C49.8279 52.5353 49.7165 52.4609 49.5939 52.4101C49.4713 52.3594 49.34 52.3332 49.2073 52.3333H19.798C19.6654 52.3332 19.534 52.3594 19.4114 52.4101C19.2888 52.4609 19.1775 52.5353 19.0836 52.6291C18.9898 52.7229 18.9154 52.8343 18.8647 52.9569C18.8139 53.0795 18.7878 53.2108 18.7878 53.3435C18.7878 53.4762 18.8139 53.6075 18.8647 53.7301C18.9154 53.8527 18.9898 53.9641 19.0836 54.0579C19.1775 54.1517 19.2888 54.2261 19.4114 54.2769C19.534 54.3276 19.6654 54.3538 19.798 54.3537H37.4019V56.5431H28.514C27.956 56.5431 27.5038 56.9953 27.5038 57.5533C27.5038 58.1113 27.956 58.5635 28.514 58.5635H37.4019V64.9898C37.402 65.1676 37.4489 65.3422 37.538 65.4961C37.6271 65.6499 37.7553 65.7775 37.9095 65.866C38.0637 65.9545 38.2386 66.0007 38.4164 66C38.5942 65.9993 38.7686 65.9517 38.9221 65.8619L42.9318 63.5178L46.9411 65.8619C47.0946 65.9517 47.269 65.9994 47.4468 66.0001C47.6246 66.0009 47.7995 65.9546 47.9537 65.8661C48.1079 65.7776 48.236 65.65 48.3251 65.4961C48.4142 65.3422 48.4612 65.1676 48.4612 64.9898V58.5635H54.6072C54.7398 58.5636 54.8712 58.5374 54.9938 58.4867C55.1163 58.4359 55.2277 58.3615 55.3215 58.2677C55.4154 58.1739 55.4898 58.0625 55.5405 57.9399C55.5913 57.8174 55.6174 57.686 55.6174 57.5533V21.1845C55.6174 20.6265 55.1652 20.1743 54.6072 20.1743C54.0491 20.1743 53.5969 20.6265 53.5969 21.1845V46.7211H16.3029C14.8516 46.7211 13.4819 47.2407 12.4035 48.1889V5.92117C12.4035 3.77024 14.1527 2.02047 16.3029 2.02047H53.5968V16.6415C53.5968 16.7742 53.6229 16.9055 53.6736 17.0281C53.7243 17.1506 53.7987 17.262 53.8925 17.3558C53.9863 17.4496 54.0977 17.524 54.2202 17.5748C54.3428 17.6255 54.4741 17.6516 54.6068 17.6516ZM46.4404 57.5507L46.4403 57.5533L46.4404 57.5559V63.2288L43.4412 61.4751C43.2865 61.3848 43.1105 61.3371 42.9314 61.3371C42.7522 61.3371 42.5762 61.3848 42.4215 61.4751L39.4222 63.2288V57.5638C39.4222 57.5603 39.4227 57.5569 39.4227 57.5534C39.4227 57.55 39.4222 57.5466 39.4222 57.5431V54.354H46.4403V57.551L46.4404 57.5507Z" fill="black"/>
<path d="M36.7746 10.1179C37.3326 10.1179 37.7848 9.66574 37.7848 9.10771C37.7848 8.54968 37.3326 8.09747 36.7746 8.09747H29.4969C29.3642 8.09746 29.2329 8.12357 29.1103 8.17434C28.9877 8.2251 28.8763 8.29951 28.7825 8.39333C28.6887 8.48714 28.6143 8.59851 28.5635 8.72109C28.5128 8.84366 28.4867 8.97504 28.4867 9.10771C28.4867 9.24038 28.5128 9.37175 28.5635 9.49433C28.6143 9.61691 28.6887 9.72828 28.7825 9.82209C28.8763 9.91591 28.9877 9.99032 29.1103 10.0411C29.2329 10.0918 29.3642 10.118 29.4969 10.1179H36.7746ZM40.9916 14.306H25.2798C24.7217 14.306 24.2695 14.7582 24.2695 15.3162C24.2695 15.8742 24.7217 16.3264 25.2798 16.3264H40.9915C41.5495 16.3264 42.0017 15.8742 42.0017 15.3162C42.0017 14.7582 41.5496 14.306 40.9916 14.306ZM40.9916 20.5145H25.2798C25.1471 20.5145 25.0157 20.5406 24.8931 20.5913C24.7706 20.6421 24.6592 20.7165 24.5654 20.8103C24.4716 20.9041 24.3971 21.0155 24.3464 21.1381C24.2956 21.2607 24.2695 21.392 24.2695 21.5247C24.2695 21.6574 24.2956 21.7888 24.3464 21.9113C24.3971 22.0339 24.4716 22.1453 24.5654 22.2391C24.6592 22.3329 24.7706 22.4073 24.8931 22.4581C25.0157 22.5088 25.1471 22.535 25.2798 22.5349H40.9915C41.1241 22.535 41.2555 22.5088 41.3781 22.4581C41.5007 22.4073 41.612 22.3329 41.7058 22.2391C41.7997 22.1453 41.8741 22.0339 41.9248 21.9113C41.9756 21.7888 42.0017 21.6574 42.0017 21.5247C42.0017 21.392 41.9756 21.2607 41.9249 21.1381C41.8741 21.0155 41.7997 20.9041 41.7059 20.8103C41.6121 20.7165 41.5008 20.6421 41.3782 20.5913C41.2556 20.5406 41.1243 20.5145 40.9916 20.5145Z" fill="black"/>
</g>
<defs>
<clipPath id="clip0_16_28">
<rect width="66" height="66" fill="white"/>
</clipPath>
</defs>
</svg>
